<svg width="132" height="112" viewBox="0 0 132 112" fill="none" xmlns="http://www.w3.org/2000/svg" role="img" aria-label="Resources and Ecosystem">
  <defs><linearGradient id="g6" x1="20" y1="16" x2="112" y2="98" gradientUnits="userSpaceOnUse">
    <stop offset="0" stop-color="#8b5cf6"/><stop offset="1" stop-color="#22d3ee"/></linearGradient></defs>
  <!-- database stack (resources) -->
  <g stroke="url(#g6)" stroke-width="4" stroke-linecap="round" stroke-linejoin="round" fill="none">
    <ellipse cx="46" cy="30" rx="26" ry="9" fill="#8b5cf6" fill-opacity="0.12"/>
    <path d="M20 30 V74 C20 79 32 83 46 83 C60 83 72 79 72 74 V30"/>
    <path d="M20 52 C20 57 32 61 46 61 C60 61 72 57 72 52"/>
  </g>
  <!-- community nodes -->
  <g stroke="url(#g6)" stroke-width="3.5" fill="none" stroke-linecap="round">
    <path d="M96 40 L96 66 M96 66 L84 82 M96 66 L108 82"/>
  </g>
  <g fill="url(#g6)">
    <circle cx="96" cy="34" r="7"/><circle cx="82" cy="86" r="6"/><circle cx="110" cy="86" r="6"/>
  </g>
</svg>
